<svg width="269" height="52" viewBox="0 0 269 52" fill="none" xmlns="http://www.w3.org/2000/svg">
<circle cx="26.5" cy="26" r="26" fill="#F4F0EC"/>
<path d="M19.996 26.4C19.996 25.8027 20.0547 25.2533 20.172 24.752C20.2893 24.2507 20.4547 23.8187 20.668 23.456C20.892 23.0933 21.1587 22.816 21.468 22.624C21.7773 22.4213 22.1187 22.32 22.492 22.32C22.8867 22.32 23.2333 22.4213 23.532 22.624C23.8413 22.816 24.1027 23.0933 24.316 23.456C24.54 23.8187 24.7107 24.2507 24.828 24.752C24.9453 25.2533 25.004 25.8027 25.004 26.4C25.004 26.9973 24.9453 27.5467 24.828 28.048C24.7107 28.5493 24.54 28.9813 24.316 29.344C24.1027 29.7067 23.8413 29.9893 23.532 30.192C23.2333 30.384 22.8867 30.48 22.492 30.48C22.1187 30.48 21.7773 30.384 21.468 30.192C21.1587 29.9893 20.892 29.7067 20.668 29.344C20.4547 28.9813 20.2893 28.5493 20.172 28.048C20.0547 27.5467 19.996 26.9973 19.996 26.4ZM18.14 26.4C18.14 27.5627 18.3213 28.576 18.684 29.44C19.0573 30.304 19.5693 30.976 20.22 31.456C20.8813 31.936 21.6387 32.176 22.492 32.176C23.3667 32.176 24.1293 31.936 24.78 31.456C25.4413 30.976 25.9533 30.304 26.316 29.44C26.6787 28.576 26.86 27.5627 26.86 26.4C26.86 25.2373 26.6787 24.224 26.316 23.36C25.9533 22.496 25.4413 21.824 24.78 21.344C24.1293 20.864 23.3667 20.624 22.492 20.624C21.6387 20.624 20.8813 20.864 20.22 21.344C19.5693 21.824 19.0573 22.496 18.684 23.36C18.3213 24.224 18.14 25.2373 18.14 26.4ZM28.7 23.424L31.292 22.704V32H33.164V20.624L28.7 21.632V23.424Z" fill="#292F36"/>
<circle cx="98.5" cy="26" r="25.5" stroke="#CDA274"/>
<path d="M91.996 26.4C91.996 25.8027 92.0547 25.2533 92.172 24.752C92.2893 24.2507 92.4547 23.8187 92.668 23.456C92.892 23.0933 93.1587 22.816 93.468 22.624C93.7773 22.4213 94.1187 22.32 94.492 22.32C94.8867 22.32 95.2333 22.4213 95.532 22.624C95.8413 22.816 96.1027 23.0933 96.316 23.456C96.54 23.8187 96.7107 24.2507 96.828 24.752C96.9453 25.2533 97.004 25.8027 97.004 26.4C97.004 26.9973 96.9453 27.5467 96.828 28.048C96.7107 28.5493 96.54 28.9813 96.316 29.344C96.1027 29.7067 95.8413 29.9893 95.532 30.192C95.2333 30.384 94.8867 30.48 94.492 30.48C94.1187 30.48 93.7773 30.384 93.468 30.192C93.1587 29.9893 92.892 29.7067 92.668 29.344C92.4547 28.9813 92.2893 28.5493 92.172 28.048C92.0547 27.5467 91.996 26.9973 91.996 26.4ZM90.14 26.4C90.14 27.5627 90.3213 28.576 90.684 29.44C91.0573 30.304 91.5693 30.976 92.22 31.456C92.8813 31.936 93.6387 32.176 94.492 32.176C95.3667 32.176 96.1293 31.936 96.78 31.456C97.4413 30.976 97.9533 30.304 98.316 29.44C98.6787 28.576 98.86 27.5627 98.86 26.4C98.86 25.2373 98.6787 24.224 98.316 23.36C97.9533 22.496 97.4413 21.824 96.78 21.344C96.1293 20.864 95.3667 20.624 94.492 20.624C93.6387 20.624 92.8813 20.864 92.22 21.344C91.5693 21.824 91.0573 22.496 90.684 23.36C90.3213 24.224 90.14 25.2373 90.14 26.4ZM99.82 32H108.364V30.24H103.5L106.684 27.12C107.143 26.6933 107.511 26.208 107.788 25.664C108.076 25.12 108.22 24.5547 108.22 23.968C108.22 23.5947 108.14 23.2107 107.98 22.816C107.831 22.4213 107.596 22.0587 107.276 21.728C106.967 21.3973 106.572 21.1307 106.092 20.928C105.612 20.7147 105.047 20.608 104.396 20.608C103.543 20.608 102.817 20.7893 102.22 21.152C101.633 21.504 101.185 21.9947 100.876 22.624C100.577 23.2427 100.428 23.952 100.428 24.752H102.3C102.3 24.2613 102.38 23.8293 102.54 23.456C102.711 23.0827 102.951 22.8 103.26 22.608C103.569 22.4053 103.937 22.304 104.364 22.304C104.673 22.304 104.945 22.3573 105.18 22.464C105.415 22.56 105.612 22.6933 105.772 22.864C105.943 23.0347 106.065 23.2267 106.14 23.44C106.225 23.6427 106.268 23.8507 106.268 24.064C106.268 24.3627 106.22 24.6453 106.124 24.912C106.028 25.1787 105.884 25.4453 105.692 25.712C105.5 25.9787 105.271 26.256 105.004 26.544L99.82 32Z" fill="#292F36"/>
<circle cx="170.5" cy="26" r="25.5" stroke="#CDA274"/>
<path d="M163.996 26.4C163.996 25.8027 164.055 25.2533 164.172 24.752C164.289 24.2507 164.455 23.8187 164.668 23.456C164.892 23.0933 165.159 22.816 165.468 22.624C165.777 22.4213 166.119 22.32 166.492 22.32C166.887 22.32 167.233 22.4213 167.532 22.624C167.841 22.816 168.103 23.0933 168.316 23.456C168.54 23.8187 168.711 24.2507 168.828 24.752C168.945 25.2533 169.004 25.8027 169.004 26.4C169.004 26.9973 168.945 27.5467 168.828 28.048C168.711 28.5493 168.54 28.9813 168.316 29.344C168.103 29.7067 167.841 29.9893 167.532 30.192C167.233 30.384 166.887 30.48 166.492 30.48C166.119 30.48 165.777 30.384 165.468 30.192C165.159 29.9893 164.892 29.7067 164.668 29.344C164.455 28.9813 164.289 28.5493 164.172 28.048C164.055 27.5467 163.996 26.9973 163.996 26.4ZM162.14 26.4C162.14 27.5627 162.321 28.576 162.684 29.44C163.057 30.304 163.569 30.976 164.22 31.456C164.881 31.936 165.639 32.176 166.492 32.176C167.367 32.176 168.129 31.936 168.78 31.456C169.441 30.976 169.953 30.304 170.316 29.44C170.679 28.576 170.86 27.5627 170.86 26.4C170.86 25.2373 170.679 24.224 170.316 23.36C169.953 22.496 169.441 21.824 168.78 21.344C168.129 20.864 167.367 20.624 166.492 20.624C165.639 20.624 164.881 20.864 164.22 21.344C163.569 21.824 163.057 22.496 162.684 23.36C162.321 24.224 162.14 25.2373 162.14 26.4ZM175.692 26.512C176.481 26.512 177.18 26.3947 177.788 26.16C178.407 25.9253 178.892 25.5893 179.244 25.152C179.596 24.7147 179.772 24.2133 179.772 23.648C179.772 23.0933 179.633 22.592 179.356 22.144C179.089 21.6853 178.7 21.3173 178.188 21.04C177.676 20.7627 177.057 20.624 176.332 20.624C175.649 20.624 175.047 20.7627 174.524 21.04C174.001 21.3067 173.591 21.6747 173.292 22.144C173.004 22.6133 172.86 23.1573 172.86 23.776H174.636C174.636 23.328 174.796 22.96 175.116 22.672C175.447 22.3733 175.857 22.224 176.348 22.224C176.679 22.224 176.956 22.288 177.18 22.416C177.404 22.544 177.575 22.7253 177.692 22.96C177.809 23.184 177.868 23.4453 177.868 23.744C177.868 23.9787 177.815 24.208 177.708 24.432C177.612 24.6453 177.468 24.832 177.276 24.992C177.095 25.152 176.871 25.28 176.604 25.376C176.337 25.4613 176.033 25.504 175.692 25.504V26.512ZM176.252 32.192C177.02 32.192 177.692 32.0587 178.268 31.792C178.844 31.5253 179.292 31.152 179.612 30.672C179.932 30.192 180.092 29.6373 180.092 29.008C180.092 28.4427 179.98 27.9627 179.756 27.568C179.532 27.1627 179.217 26.8373 178.812 26.592C178.417 26.336 177.953 26.1493 177.42 26.032C176.887 25.904 176.311 25.84 175.692 25.84V26.912C176.065 26.912 176.407 26.9547 176.716 27.04C177.025 27.1253 177.287 27.248 177.5 27.408C177.724 27.568 177.895 27.7653 178.012 28C178.129 28.2347 178.188 28.5013 178.188 28.8C178.188 29.1733 178.108 29.4933 177.948 29.76C177.788 30.016 177.564 30.2133 177.276 30.352C176.999 30.4907 176.668 30.56 176.284 30.56C175.911 30.56 175.569 30.4907 175.26 30.352C174.951 30.2027 174.705 30 174.524 29.744C174.353 29.4773 174.268 29.1627 174.268 28.8H172.38C172.38 29.2587 172.471 29.696 172.652 30.112C172.833 30.5173 173.089 30.88 173.42 31.2C173.751 31.5093 174.156 31.7547 174.636 31.936C175.116 32.1067 175.655 32.192 176.252 32.192Z" fill="#292F36"/>
<circle cx="242.5" cy="26" r="25.5" stroke="#CDA274"/>
<path d="M239.557 32L245.5 25.3143L239.557 18.6286" stroke="#292F36" stroke-width="2" stroke-linecap="round" stroke-linejoin="round"/>
</svg>
