<svg width="345" height="161" viewBox="0 0 345 161" fill="none" xmlns="http://www.w3.org/2000/svg">
<path d="M3.72529 115L3.77529 114.75L4.37529 114.525C5.14196 114.208 5.60863 113.642 5.77529 112.825L7.00029 106.25C7.13363 105.55 7.27529 104.775 7.42529 103.925C7.59196 103.058 7.75029 102.2 7.90029 101.35C8.05029 100.483 8.18363 99.7 8.30029 99H7.22529C6.62529 99 6.10863 99.1083 5.67529 99.325C5.24196 99.5417 4.85029 99.8917 4.50029 100.375L2.50029 103.1H2.25029L3.17529 98.5H17.0253L16.2253 103.1H15.9753L15.0503 100.575C14.6836 99.525 13.9253 99 12.7753 99H11.7503L10.2003 107.225C10.0336 108.075 9.85863 108.992 9.67529 109.975C9.50863 110.942 9.34196 111.883 9.17529 112.8C9.02529 113.667 9.35029 114.267 10.1503 114.6L10.4753 114.75L10.4253 115H3.72529ZM16.7161 115.15L16.5661 115L18.8411 104.1C18.9744 103.467 19.0911 102.9 19.1911 102.4C19.2911 101.883 19.3994 101.308 19.5161 100.675C19.6494 99.9583 19.3744 99.4833 18.6911 99.25L18.2911 99.125L18.3411 98.875L23.1161 97.475L23.2911 97.65L21.5911 105.625C22.4244 104.758 23.3078 104.042 24.2411 103.475C25.1911 102.892 26.0661 102.6 26.8661 102.6C27.3994 102.6 27.8328 102.767 28.1661 103.1C28.5161 103.417 28.6911 103.917 28.6911 104.6C28.6911 104.95 28.6578 105.317 28.5911 105.7C28.5244 106.067 28.4411 106.45 28.3411 106.85L27.0911 111.95C27.0244 112.267 26.9578 112.542 26.8911 112.775C26.8244 112.992 26.7911 113.167 26.7911 113.3C26.7911 113.65 26.9411 113.825 27.2411 113.825C27.6744 113.825 28.2828 113.458 29.0661 112.725L29.2911 112.95C28.8911 113.567 28.3494 114.125 27.6661 114.625C26.9828 115.125 26.2078 115.375 25.3411 115.375C24.7911 115.375 24.3661 115.25 24.0661 115C23.7661 114.733 23.6161 114.367 23.6161 113.9C23.6161 113.55 23.6578 113.192 23.7411 112.825C23.8244 112.442 23.9244 112.05 24.0411 111.65L25.1661 107.25C25.2828 106.8 25.3828 106.392 25.4661 106.025C25.5661 105.642 25.6161 105.317 25.6161 105.05C25.6161 104.467 25.3411 104.175 24.7911 104.175C23.9744 104.175 22.8994 104.842 21.5661 106.175L20.8161 109.65C20.5994 110.667 20.4078 111.592 20.2411 112.425C20.0911 113.242 19.9411 114.1 19.7911 115L16.7161 115.15ZM35.5142 115.375C34.2642 115.375 33.2475 114.967 32.4642 114.15C31.6808 113.333 31.2892 112.175 31.2892 110.675C31.2892 109.608 31.4725 108.592 31.8392 107.625C32.2058 106.658 32.7142 105.8 33.3642 105.05C34.0308 104.283 34.7975 103.683 35.6642 103.25C36.5308 102.817 37.4725 102.6 38.4892 102.6C39.5392 102.6 40.3392 102.842 40.8892 103.325C41.4558 103.792 41.7392 104.417 41.7392 105.2C41.7392 105.85 41.4308 106.492 40.8142 107.125C40.2142 107.758 39.3642 108.333 38.2642 108.85C37.1642 109.35 35.8725 109.733 34.3892 110C34.4058 111.15 34.6558 111.992 35.1392 112.525C35.6225 113.058 36.2892 113.325 37.1392 113.325C37.8558 113.325 38.5142 113.133 39.1142 112.75C39.7142 112.35 40.2225 111.883 40.6392 111.35L40.8892 111.525C40.5558 112.175 40.1225 112.792 39.5892 113.375C39.0725 113.958 38.4725 114.442 37.7892 114.825C37.1058 115.192 36.3475 115.375 35.5142 115.375ZM38.3142 103.275C37.9308 103.275 37.5142 103.442 37.0642 103.775C36.6308 104.108 36.2142 104.567 35.8142 105.15C35.4308 105.717 35.1058 106.375 34.8392 107.125C34.5892 107.858 34.4392 108.642 34.3892 109.475C36.2225 108.975 37.5225 108.317 38.2892 107.5C39.0725 106.683 39.4642 105.758 39.4642 104.725C39.4642 104.225 39.3558 103.858 39.1392 103.625C38.9225 103.392 38.6475 103.275 38.3142 103.275ZM51.6331 115.375C50.9664 115.375 50.3748 115.117 49.8581 114.6C49.3581 114.083 49.1081 113.183 49.1081 111.9C49.1081 111.033 49.2748 110.158 49.6081 109.275C49.9414 108.392 50.3831 107.558 50.9331 106.775C51.4998 105.975 52.1331 105.258 52.8331 104.625C53.5498 103.992 54.2914 103.5 55.0581 103.15C55.8248 102.783 56.5748 102.6 57.3081 102.6C57.6414 102.6 57.9581 102.65 58.2581 102.75L58.6331 100.875C58.7831 100.125 58.5081 99.6167 57.8081 99.35L57.2581 99.125L57.3081 98.875L62.1581 97.475L62.3331 97.65L59.2581 112.2C59.2081 112.467 59.1664 112.692 59.1331 112.875C59.1164 113.042 59.1081 113.208 59.1081 113.375C59.1081 113.725 59.2498 113.9 59.5331 113.9C59.7331 113.9 59.9998 113.8 60.3331 113.6C60.6831 113.383 61.0331 113.067 61.3831 112.65L61.6581 112.9C61.2581 113.567 60.7164 114.15 60.0331 114.65C59.3498 115.133 58.6248 115.375 57.8581 115.375C57.3081 115.375 56.8748 115.2 56.5581 114.85C56.2414 114.483 56.0831 114.017 56.0831 113.45C56.0831 113.167 56.1081 112.833 56.1581 112.45C55.4748 113.317 54.7248 114.025 53.9081 114.575C53.1081 115.108 52.3498 115.375 51.6331 115.375ZM52.1581 111.1C52.1581 111.933 52.2914 112.533 52.5581 112.9C52.8248 113.267 53.1748 113.45 53.6081 113.45C54.3748 113.45 55.2581 112.867 56.2581 111.7C56.2748 111.617 56.2914 111.525 56.3081 111.425L57.8331 104.05C57.4164 103.667 56.9248 103.475 56.3581 103.475C55.9414 103.475 55.5498 103.575 55.1831 103.775C54.8331 103.958 54.4998 104.225 54.1831 104.575C53.7998 105.008 53.4498 105.592 53.1331 106.325C52.8331 107.042 52.5914 107.825 52.4081 108.675C52.2414 109.508 52.1581 110.317 52.1581 111.1ZM67.605 115.375C66.355 115.375 65.3383 114.967 64.555 114.15C63.7716 113.333 63.38 112.175 63.38 110.675C63.38 109.608 63.5633 108.592 63.93 107.625C64.2966 106.658 64.805 105.8 65.455 105.05C66.1216 104.283 66.8883 103.683 67.755 103.25C68.6216 102.817 69.5633 102.6 70.58 102.6C71.63 102.6 72.43 102.842 72.98 103.325C73.5466 103.792 73.83 104.417 73.83 105.2C73.83 105.85 73.5216 106.492 72.905 107.125C72.305 107.758 71.455 108.333 70.355 108.85C69.255 109.35 67.9633 109.733 66.48 110C66.4966 111.15 66.7466 111.992 67.23 112.525C67.7133 113.058 68.38 113.325 69.23 113.325C69.9466 113.325 70.605 113.133 71.205 112.75C71.805 112.35 72.3133 111.883 72.73 111.35L72.98 111.525C72.6466 112.175 72.2133 112.792 71.68 113.375C71.1633 113.958 70.5633 114.442 69.88 114.825C69.1966 115.192 68.4383 115.375 67.605 115.375ZM70.405 103.275C70.0216 103.275 69.605 103.442 69.155 103.775C68.7216 104.108 68.305 104.567 67.905 105.15C67.5216 105.717 67.1966 106.375 66.93 107.125C66.68 107.858 66.53 108.642 66.48 109.475C68.3133 108.975 69.6133 108.317 70.38 107.5C71.1633 106.683 71.555 105.758 71.555 104.725C71.555 104.225 71.4466 103.858 71.23 103.625C71.0133 103.392 70.7383 103.275 70.405 103.275ZM77.6063 115.375C77.0897 115.375 76.6563 115.242 76.3063 114.975C75.973 114.692 75.8063 114.283 75.8063 113.75C75.8063 113.417 75.8397 113.058 75.9063 112.675C75.973 112.275 76.048 111.85 76.1313 111.4L77.8563 103.5H75.7813L75.8563 103.2L76.7563 103.1C77.223 103.05 77.6313 102.933 77.9813 102.75C78.3313 102.567 78.6647 102.308 78.9813 101.975L81.3813 99.55H81.7563L81.0563 102.975H83.7813L83.6563 103.5H80.9313L79.2063 111.825C79.1397 112.142 79.0897 112.417 79.0563 112.65C79.023 112.867 79.0063 113.05 79.0063 113.2C79.0063 113.367 79.0563 113.5 79.1563 113.6C79.2563 113.7 79.3647 113.75 79.4813 113.75C79.7147 113.75 79.9647 113.658 80.2313 113.475C80.498 113.275 80.8313 112.983 81.2313 112.6L81.5313 112.85C81.1147 113.467 80.573 114.042 79.9063 114.575C79.2397 115.108 78.473 115.375 77.6063 115.375ZM86.6577 115.375C86.191 115.375 85.7494 115.267 85.3327 115.05C84.916 114.833 84.5744 114.475 84.3077 113.975C84.0577 113.475 83.9327 112.817 83.9327 112C83.9327 111.117 84.1077 110.233 84.4577 109.35C84.8077 108.45 85.2744 107.6 85.8577 106.8C86.441 105.983 87.091 105.267 87.8077 104.65C88.5244 104.017 89.266 103.517 90.0327 103.15C90.7994 102.783 91.5244 102.6 92.2077 102.6C92.541 102.6 92.8494 102.667 93.1327 102.8C93.4327 102.917 93.716 103.083 93.9827 103.3L96.0077 102.525L96.2077 102.65L94.0327 112.225C93.916 112.692 93.8577 113.075 93.8577 113.375C93.8577 113.725 94.016 113.9 94.3327 113.9C94.566 113.9 94.8327 113.792 95.1327 113.575C95.4494 113.358 95.8077 113.067 96.2077 112.7L96.4077 112.9C96.1577 113.3 95.841 113.692 95.4577 114.075C95.091 114.442 94.6744 114.75 94.2077 115C93.7577 115.25 93.2744 115.375 92.7577 115.375C92.191 115.375 91.7327 115.208 91.3827 114.875C91.0327 114.525 90.8577 113.992 90.8577 113.275C90.8577 113.042 90.866 112.817 90.8827 112.6C90.216 113.35 89.5077 114 88.7577 114.55C88.0244 115.1 87.3244 115.375 86.6577 115.375ZM86.8827 110.875C86.8827 111.758 87.0244 112.4 87.3077 112.8C87.6077 113.183 87.9994 113.375 88.4827 113.375C88.8827 113.375 89.2827 113.25 89.6827 113C90.0827 112.75 90.516 112.392 90.9827 111.925C91.016 111.725 91.0577 111.517 91.1077 111.3L92.6827 104.1C92.466 103.833 92.2077 103.65 91.9077 103.55C91.6077 103.45 91.341 103.4 91.1077 103.4C90.391 103.4 89.641 103.825 88.8577 104.675C88.241 105.358 87.7577 106.258 87.4077 107.375C87.0577 108.492 86.8827 109.658 86.8827 110.875ZM102.673 101.2C102.206 101.2 101.798 101.05 101.448 100.75C101.114 100.433 100.948 100.017 100.948 99.5C100.948 98.9167 101.148 98.4417 101.548 98.075C101.964 97.6917 102.431 97.5 102.948 97.5C103.448 97.5 103.856 97.6583 104.173 97.975C104.489 98.2917 104.648 98.7 104.648 99.2C104.648 99.7667 104.448 100.242 104.048 100.625C103.648 101.008 103.189 101.2 102.673 101.2ZM100.348 115.375C99.8309 115.375 99.4059 115.242 99.0726 114.975C98.7392 114.708 98.5726 114.317 98.5726 113.8C98.5726 113.5 98.6059 113.142 98.6726 112.725C98.7392 112.308 98.8142 111.892 98.8976 111.475L100.073 105.85C100.223 105.167 99.9809 104.683 99.3476 104.4L98.9476 104.2L98.9726 103.925L103.673 102.575L103.923 102.8L101.973 111.85C101.906 112.15 101.856 112.408 101.823 112.625C101.789 112.825 101.773 113.025 101.773 113.225C101.773 113.592 101.939 113.775 102.273 113.775C102.523 113.775 102.773 113.7 103.023 113.55C103.273 113.383 103.589 113.117 103.973 112.75L104.198 112.975C103.781 113.592 103.248 114.15 102.598 114.65C101.964 115.133 101.214 115.375 100.348 115.375ZM107.826 115.375C107.276 115.375 106.835 115.233 106.501 114.95C106.185 114.667 106.026 114.258 106.026 113.725C106.026 113.425 106.06 113.067 106.126 112.65C106.193 112.217 106.293 111.667 106.426 111L107.851 104.1C107.985 103.467 108.093 102.892 108.176 102.375C108.276 101.858 108.385 101.275 108.501 100.625C108.618 99.9583 108.351 99.5083 107.701 99.275L107.276 99.125L107.326 98.875L112.226 97.475L112.376 97.65L109.301 112.15C109.251 112.4 109.21 112.625 109.176 112.825C109.143 113.008 109.126 113.167 109.126 113.3C109.126 113.667 109.285 113.85 109.601 113.85C110.018 113.85 110.626 113.475 111.426 112.725L111.676 112.925C111.26 113.542 110.735 114.108 110.101 114.625C109.468 115.125 108.71 115.375 107.826 115.375ZM116.487 115.375C115.437 115.375 114.587 115.167 113.937 114.75C113.287 114.333 112.962 113.742 112.962 112.975C112.962 112.575 113.104 112.225 113.387 111.925C113.671 111.625 114.037 111.475 114.487 111.475C115.321 111.475 115.837 111.983 116.037 113L116.187 113.7C116.271 114.05 116.371 114.333 116.487 114.55C116.621 114.767 116.871 114.875 117.237 114.875C117.654 114.875 118.021 114.7 118.337 114.35C118.654 114 118.812 113.517 118.812 112.9C118.812 112.433 118.662 111.983 118.362 111.55C118.079 111.117 117.596 110.642 116.912 110.125C116.229 109.592 115.679 109.042 115.262 108.475C114.846 107.892 114.637 107.2 114.637 106.4C114.637 105.7 114.812 105.067 115.162 104.5C115.529 103.917 116.054 103.458 116.737 103.125C117.421 102.775 118.229 102.6 119.162 102.6C120.246 102.6 121.096 102.817 121.712 103.25C122.346 103.683 122.662 104.242 122.662 104.925C122.662 105.292 122.554 105.6 122.337 105.85C122.121 106.083 121.796 106.2 121.362 106.2C120.562 106.2 120.021 105.717 119.737 104.75L119.487 104.05C119.404 103.717 119.304 103.483 119.187 103.35C119.071 103.217 118.887 103.15 118.637 103.15C118.371 103.15 118.096 103.3 117.812 103.6C117.529 103.883 117.387 104.342 117.387 104.975C117.387 105.575 117.562 106.125 117.912 106.625C118.279 107.108 118.821 107.617 119.537 108.15C120.271 108.7 120.804 109.233 121.137 109.75C121.487 110.267 121.662 110.892 121.662 111.625C121.662 112.308 121.462 112.933 121.062 113.5C120.662 114.067 120.079 114.525 119.312 114.875C118.546 115.208 117.604 115.375 116.487 115.375ZM132.786 115.375C132.319 115.375 131.877 115.267 131.461 115.05C131.044 114.833 130.702 114.475 130.436 113.975C130.186 113.475 130.061 112.817 130.061 112C130.061 111.117 130.236 110.233 130.586 109.35C130.936 108.45 131.402 107.6 131.986 106.8C132.569 105.983 133.219 105.267 133.936 104.65C134.652 104.017 135.394 103.517 136.161 103.15C136.927 102.783 137.652 102.6 138.336 102.6C138.669 102.6 138.977 102.667 139.261 102.8C139.561 102.917 139.844 103.083 140.111 103.3L142.136 102.525L142.336 102.65L140.161 112.225C140.044 112.692 139.986 113.075 139.986 113.375C139.986 113.725 140.144 113.9 140.461 113.9C140.694 113.9 140.961 113.792 141.261 113.575C141.577 113.358 141.936 113.067 142.336 112.7L142.536 112.9C142.286 113.3 141.969 113.692 141.586 114.075C141.219 114.442 140.802 114.75 140.336 115C139.886 115.25 139.402 115.375 138.886 115.375C138.319 115.375 137.861 115.208 137.511 114.875C137.161 114.525 136.986 113.992 136.986 113.275C136.986 113.042 136.994 112.817 137.011 112.6C136.344 113.35 135.636 114 134.886 114.55C134.152 115.1 133.452 115.375 132.786 115.375ZM133.011 110.875C133.011 111.758 133.152 112.4 133.436 112.8C133.736 113.183 134.127 113.375 134.611 113.375C135.011 113.375 135.411 113.25 135.811 113C136.211 112.75 136.644 112.392 137.111 111.925C137.144 111.725 137.186 111.517 137.236 111.3L138.811 104.1C138.594 103.833 138.336 103.65 138.036 103.55C137.736 103.45 137.469 103.4 137.236 103.4C136.519 103.4 135.769 103.825 134.986 104.675C134.369 105.358 133.886 106.258 133.536 107.375C133.186 108.492 133.011 109.658 133.011 110.875ZM144.525 115.175L144.275 115L146.175 105.85C146.259 105.417 146.234 105.1 146.1 104.9C145.967 104.683 145.742 104.508 145.425 104.375L145.05 104.2L145.1 103.95L149.45 102.575L149.7 102.8L149.025 106.925C149.375 106.125 149.784 105.4 150.25 104.75C150.717 104.1 151.209 103.583 151.725 103.2C152.242 102.8 152.759 102.6 153.275 102.6C153.792 102.6 154.209 102.742 154.525 103.025C154.842 103.292 155 103.65 155 104.1C155 104.567 154.859 104.95 154.575 105.25C154.309 105.55 153.942 105.7 153.475 105.7C153.109 105.7 152.759 105.608 152.425 105.425C152.092 105.225 151.767 104.942 151.45 104.575C150.867 105.008 150.367 105.575 149.95 106.275C149.534 106.958 149.15 107.708 148.8 108.525L148.55 109.675C148.367 110.558 148.192 111.442 148.025 112.325C147.859 113.208 147.692 114.1 147.525 115L144.525 115.175ZM159.312 115.375C158.062 115.375 157.045 114.967 156.262 114.15C155.479 113.333 155.087 112.175 155.087 110.675C155.087 109.608 155.27 108.592 155.637 107.625C156.004 106.658 156.512 105.8 157.162 105.05C157.829 104.283 158.595 103.683 159.462 103.25C160.329 102.817 161.27 102.6 162.287 102.6C163.337 102.6 164.137 102.842 164.687 103.325C165.254 103.792 165.537 104.417 165.537 105.2C165.537 105.85 165.229 106.492 164.612 107.125C164.012 107.758 163.162 108.333 162.062 108.85C160.962 109.35 159.67 109.733 158.187 110C158.204 111.15 158.454 111.992 158.937 112.525C159.42 113.058 160.087 113.325 160.937 113.325C161.654 113.325 162.312 113.133 162.912 112.75C163.512 112.35 164.02 111.883 164.437 111.35L164.687 111.525C164.354 112.175 163.92 112.792 163.387 113.375C162.87 113.958 162.27 114.442 161.587 114.825C160.904 115.192 160.145 115.375 159.312 115.375ZM162.112 103.275C161.729 103.275 161.312 103.442 160.862 103.775C160.429 104.108 160.012 104.567 159.612 105.15C159.229 105.717 158.904 106.375 158.637 107.125C158.387 107.858 158.237 108.642 158.187 109.475C160.02 108.975 161.32 108.317 162.087 107.5C162.87 106.683 163.262 105.758 163.262 104.725C163.262 104.225 163.154 103.858 162.937 103.625C162.72 103.392 162.445 103.275 162.112 103.275ZM172.856 115.175L172.631 115L174.556 105.8C174.706 105.15 174.473 104.683 173.856 104.4L173.431 104.2L173.456 103.95L178.106 102.575L178.331 102.775L177.756 105.8C178.623 104.817 179.506 104.042 180.406 103.475C181.306 102.892 182.156 102.6 182.956 102.6C183.489 102.6 183.931 102.767 184.281 103.1C184.631 103.417 184.806 103.917 184.806 104.6C184.806 104.95 184.773 105.317 184.706 105.7C184.639 106.067 184.556 106.45 184.456 106.85L183.131 112.175C183.064 112.442 183.014 112.667 182.981 112.85C182.948 113.017 182.931 113.167 182.931 113.3C182.931 113.65 183.073 113.825 183.356 113.825C183.823 113.825 184.414 113.45 185.131 112.7L185.381 112.95C184.964 113.567 184.414 114.125 183.731 114.625C183.048 115.125 182.289 115.375 181.456 115.375C180.906 115.375 180.481 115.25 180.181 115C179.881 114.733 179.731 114.367 179.731 113.9C179.731 113.55 179.773 113.192 179.856 112.825C179.939 112.442 180.031 112.05 180.131 111.65L181.106 107.75C181.239 107.217 181.348 106.742 181.431 106.325C181.514 105.908 181.556 105.525 181.556 105.175C181.556 104.875 181.489 104.667 181.356 104.55C181.223 104.417 181.039 104.35 180.806 104.35C180.406 104.35 179.931 104.525 179.381 104.875C178.848 105.225 178.256 105.775 177.606 106.525L176.906 109.675C176.723 110.558 176.548 111.442 176.381 112.325C176.214 113.208 176.048 114.1 175.881 115L172.856 115.175ZM191.949 115.375C191.083 115.375 190.291 115.208 189.574 114.875C188.858 114.525 188.291 114.008 187.874 113.325C187.458 112.625 187.249 111.742 187.249 110.675C187.249 109.608 187.424 108.592 187.774 107.625C188.141 106.658 188.649 105.8 189.299 105.05C189.949 104.283 190.708 103.683 191.574 103.25C192.441 102.817 193.383 102.6 194.399 102.6C195.283 102.6 196.066 102.775 196.749 103.125C197.449 103.458 197.999 103.967 198.399 104.65C198.816 105.333 199.024 106.208 199.024 107.275C199.024 108.325 198.841 109.342 198.474 110.325C198.124 111.292 197.624 112.158 196.974 112.925C196.341 113.675 195.591 114.275 194.724 114.725C193.874 115.158 192.949 115.375 191.949 115.375ZM192.249 114.875C192.766 114.875 193.233 114.642 193.649 114.175C194.083 113.692 194.458 113.058 194.774 112.275C195.091 111.475 195.333 110.6 195.499 109.65C195.666 108.683 195.749 107.725 195.749 106.775C195.749 105.392 195.608 104.433 195.324 103.9C195.041 103.367 194.674 103.1 194.224 103.1C193.691 103.1 193.199 103.333 192.749 103.8C192.299 104.267 191.908 104.892 191.574 105.675C191.241 106.458 190.983 107.325 190.799 108.275C190.616 109.225 190.524 110.175 190.524 111.125C190.524 112.542 190.691 113.525 191.024 114.075C191.358 114.608 191.766 114.875 192.249 114.875ZM203.235 115.375C202.719 115.375 202.285 115.242 201.935 114.975C201.602 114.692 201.435 114.283 201.435 113.75C201.435 113.417 201.469 113.058 201.535 112.675C201.602 112.275 201.677 111.85 201.76 111.4L203.485 103.5H201.41L201.485 103.2L202.385 103.1C202.852 103.05 203.26 102.933 203.61 102.75C203.96 102.567 204.294 102.308 204.61 101.975L207.01 99.55H207.385L206.685 102.975H209.41L209.285 103.5H206.56L204.835 111.825C204.769 112.142 204.719 112.417 204.685 112.65C204.652 112.867 204.635 113.05 204.635 113.2C204.635 113.367 204.685 113.5 204.785 113.6C204.885 113.7 204.994 113.75 205.11 113.75C205.344 113.75 205.594 113.658 205.86 113.475C206.127 113.275 206.46 112.983 206.86 112.6L207.16 112.85C206.744 113.467 206.202 114.042 205.535 114.575C204.869 115.108 204.102 115.375 203.235 115.375ZM218.298 115.375C217.781 115.375 217.348 115.242 216.998 114.975C216.664 114.692 216.498 114.283 216.498 113.75C216.498 113.417 216.531 113.058 216.598 112.675C216.664 112.275 216.739 111.85 216.823 111.4L218.548 103.5H216.473L216.548 103.2L217.448 103.1C217.914 103.05 218.323 102.933 218.673 102.75C219.023 102.567 219.356 102.308 219.673 101.975L222.073 99.55H222.448L221.748 102.975H224.473L224.348 103.5H221.623L219.898 111.825C219.831 112.142 219.781 112.417 219.748 112.65C219.714 112.867 219.698 113.05 219.698 113.2C219.698 113.367 219.748 113.5 219.848 113.6C219.948 113.7 220.056 113.75 220.173 113.75C220.406 113.75 220.656 113.658 220.923 113.475C221.189 113.275 221.523 112.983 221.923 112.6L222.223 112.85C221.806 113.467 221.264 114.042 220.598 114.575C219.931 115.108 219.164 115.375 218.298 115.375ZM224.421 115.15L224.271 115L226.546 104.1C226.68 103.467 226.796 102.9 226.896 102.4C226.996 101.883 227.105 101.308 227.221 100.675C227.355 99.9583 227.08 99.4833 226.396 99.25L225.996 99.125L226.046 98.875L230.821 97.475L230.996 97.65L229.296 105.625C230.13 104.758 231.013 104.042 231.946 103.475C232.896 102.892 233.771 102.6 234.571 102.6C235.105 102.6 235.538 102.767 235.871 103.1C236.221 103.417 236.396 103.917 236.396 104.6C236.396 104.95 236.363 105.317 236.296 105.7C236.23 106.067 236.146 106.45 236.046 106.85L234.796 111.95C234.73 112.267 234.663 112.542 234.596 112.775C234.53 112.992 234.496 113.167 234.496 113.3C234.496 113.65 234.646 113.825 234.946 113.825C235.38 113.825 235.988 113.458 236.771 112.725L236.996 112.95C236.596 113.567 236.055 114.125 235.371 114.625C234.688 115.125 233.913 115.375 233.046 115.375C232.496 115.375 232.071 115.25 231.771 115C231.471 114.733 231.321 114.367 231.321 113.9C231.321 113.55 231.363 113.192 231.446 112.825C231.53 112.442 231.63 112.05 231.746 111.65L232.871 107.25C232.988 106.8 233.088 106.392 233.171 106.025C233.271 105.642 233.321 105.317 233.321 105.05C233.321 104.467 233.046 104.175 232.496 104.175C231.68 104.175 230.605 104.842 229.271 106.175L228.521 109.65C228.305 110.667 228.113 111.592 227.946 112.425C227.796 113.242 227.646 114.1 227.496 115L224.421 115.15ZM243.219 115.375C241.969 115.375 240.953 114.967 240.169 114.15C239.386 113.333 238.994 112.175 238.994 110.675C238.994 109.608 239.178 108.592 239.544 107.625C239.911 106.658 240.419 105.8 241.069 105.05C241.736 104.283 242.503 103.683 243.369 103.25C244.236 102.817 245.178 102.6 246.194 102.6C247.244 102.6 248.044 102.842 248.594 103.325C249.161 103.792 249.444 104.417 249.444 105.2C249.444 105.85 249.136 106.492 248.519 107.125C247.919 107.758 247.069 108.333 245.969 108.85C244.869 109.35 243.578 109.733 242.094 110C242.111 111.15 242.361 111.992 242.844 112.525C243.328 113.058 243.994 113.325 244.844 113.325C245.561 113.325 246.219 113.133 246.819 112.75C247.419 112.35 247.928 111.883 248.344 111.35L248.594 111.525C248.261 112.175 247.828 112.792 247.294 113.375C246.778 113.958 246.178 114.442 245.494 114.825C244.811 115.192 244.053 115.375 243.219 115.375ZM246.019 103.275C245.636 103.275 245.219 103.442 244.769 103.775C244.336 104.108 243.919 104.567 243.519 105.15C243.136 105.717 242.811 106.375 242.544 107.125C242.294 107.858 242.144 108.642 242.094 109.475C243.928 108.975 245.228 108.317 245.994 107.5C246.778 106.683 247.169 105.758 247.169 104.725C247.169 104.225 247.061 103.858 246.844 103.625C246.628 103.392 246.353 103.275 246.019 103.275ZM259.338 115.375C258.672 115.375 258.08 115.117 257.563 114.6C257.063 114.083 256.813 113.183 256.813 111.9C256.813 111.033 256.98 110.158 257.313 109.275C257.647 108.392 258.088 107.558 258.638 106.775C259.205 105.975 259.838 105.258 260.538 104.625C261.255 103.992 261.997 103.5 262.763 103.15C263.53 102.783 264.28 102.6 265.013 102.6C265.347 102.6 265.663 102.65 265.963 102.75L266.338 100.875C266.488 100.125 266.213 99.6167 265.513 99.35L264.963 99.125L265.013 98.875L269.863 97.475L270.038 97.65L266.963 112.2C266.913 112.467 266.872 112.692 266.838 112.875C266.822 113.042 266.813 113.208 266.813 113.375C266.813 113.725 266.955 113.9 267.238 113.9C267.438 113.9 267.705 113.8 268.038 113.6C268.388 113.383 268.738 113.067 269.088 112.65L269.363 112.9C268.963 113.567 268.422 114.15 267.738 114.65C267.055 115.133 266.33 115.375 265.563 115.375C265.013 115.375 264.58 115.2 264.263 114.85C263.947 114.483 263.788 114.017 263.788 113.45C263.788 113.167 263.813 112.833 263.863 112.45C263.18 113.317 262.43 114.025 261.613 114.575C260.813 115.108 260.055 115.375 259.338 115.375ZM259.863 111.1C259.863 111.933 259.997 112.533 260.263 112.9C260.53 113.267 260.88 113.45 261.313 113.45C262.08 113.45 262.963 112.867 263.963 111.7C263.98 111.617 263.997 111.525 264.013 111.425L265.538 104.05C265.122 103.667 264.63 103.475 264.063 103.475C263.647 103.475 263.255 103.575 262.888 103.775C262.538 103.958 262.205 104.225 261.888 104.575C261.505 105.008 261.155 105.592 260.838 106.325C260.538 107.042 260.297 107.825 260.113 108.675C259.947 109.508 259.863 110.317 259.863 111.1ZM275.31 115.375C274.06 115.375 273.043 114.967 272.26 114.15C271.477 113.333 271.085 112.175 271.085 110.675C271.085 109.608 271.268 108.592 271.635 107.625C272.002 106.658 272.51 105.8 273.16 105.05C273.827 104.283 274.593 103.683 275.46 103.25C276.327 102.817 277.268 102.6 278.285 102.6C279.335 102.6 280.135 102.842 280.685 103.325C281.252 103.792 281.535 104.417 281.535 105.2C281.535 105.85 281.227 106.492 280.61 107.125C280.01 107.758 279.16 108.333 278.06 108.85C276.96 109.35 275.668 109.733 274.185 110C274.202 111.15 274.452 111.992 274.935 112.525C275.418 113.058 276.085 113.325 276.935 113.325C277.652 113.325 278.31 113.133 278.91 112.75C279.51 112.35 280.018 111.883 280.435 111.35L280.685 111.525C280.352 112.175 279.918 112.792 279.385 113.375C278.868 113.958 278.268 114.442 277.585 114.825C276.902 115.192 276.143 115.375 275.31 115.375ZM278.11 103.275C277.727 103.275 277.31 103.442 276.86 103.775C276.427 104.108 276.01 104.567 275.61 105.15C275.227 105.717 274.902 106.375 274.635 107.125C274.385 107.858 274.235 108.642 274.185 109.475C276.018 108.975 277.318 108.317 278.085 107.5C278.868 106.683 279.26 105.758 279.26 104.725C279.26 104.225 279.152 103.858 278.935 103.625C278.718 103.392 278.443 103.275 278.11 103.275ZM285.311 115.375C284.795 115.375 284.361 115.242 284.011 114.975C283.678 114.692 283.511 114.283 283.511 113.75C283.511 113.417 283.545 113.058 283.611 112.675C283.678 112.275 283.753 111.85 283.836 111.4L285.561 103.5H283.486L283.561 103.2L284.461 103.1C284.928 103.05 285.336 102.933 285.686 102.75C286.036 102.567 286.37 102.308 286.686 101.975L289.086 99.55H289.461L288.761 102.975H291.486L291.361 103.5H288.636L286.911 111.825C286.845 112.142 286.795 112.417 286.761 112.65C286.728 112.867 286.711 113.05 286.711 113.2C286.711 113.367 286.761 113.5 286.861 113.6C286.961 113.7 287.07 113.75 287.186 113.75C287.42 113.75 287.67 113.658 287.936 113.475C288.203 113.275 288.536 112.983 288.936 112.6L289.236 112.85C288.82 113.467 288.278 114.042 287.611 114.575C286.945 115.108 286.178 115.375 285.311 115.375ZM294.363 115.375C293.896 115.375 293.454 115.267 293.038 115.05C292.621 114.833 292.279 114.475 292.013 113.975C291.763 113.475 291.638 112.817 291.638 112C291.638 111.117 291.813 110.233 292.163 109.35C292.513 108.45 292.979 107.6 293.563 106.8C294.146 105.983 294.796 105.267 295.513 104.65C296.229 104.017 296.971 103.517 297.738 103.15C298.504 102.783 299.229 102.6 299.913 102.6C300.246 102.6 300.554 102.667 300.838 102.8C301.138 102.917 301.421 103.083 301.688 103.3L303.713 102.525L303.913 102.65L301.738 112.225C301.621 112.692 301.563 113.075 301.563 113.375C301.563 113.725 301.721 113.9 302.038 113.9C302.271 113.9 302.538 113.792 302.838 113.575C303.154 113.358 303.513 113.067 303.913 112.7L304.113 112.9C303.863 113.3 303.546 113.692 303.163 114.075C302.796 114.442 302.379 114.75 301.913 115C301.463 115.25 300.979 115.375 300.463 115.375C299.896 115.375 299.438 115.208 299.088 114.875C298.738 114.525 298.563 113.992 298.563 113.275C298.563 113.042 298.571 112.817 298.588 112.6C297.921 113.35 297.213 114 296.463 114.55C295.729 115.1 295.029 115.375 294.363 115.375ZM294.588 110.875C294.588 111.758 294.729 112.4 295.013 112.8C295.313 113.183 295.704 113.375 296.188 113.375C296.588 113.375 296.988 113.25 297.388 113C297.788 112.75 298.221 112.392 298.688 111.925C298.721 111.725 298.763 111.517 298.813 111.3L300.388 104.1C300.171 103.833 299.913 103.65 299.613 103.55C299.313 103.45 299.046 103.4 298.813 103.4C298.096 103.4 297.346 103.825 296.563 104.675C295.946 105.358 295.463 106.258 295.113 107.375C294.763 108.492 294.588 109.658 294.588 110.875ZM310.378 101.2C309.911 101.2 309.503 101.05 309.153 100.75C308.819 100.433 308.653 100.017 308.653 99.5C308.653 98.9167 308.853 98.4417 309.253 98.075C309.669 97.6917 310.136 97.5 310.653 97.5C311.153 97.5 311.561 97.6583 311.878 97.975C312.194 98.2917 312.353 98.7 312.353 99.2C312.353 99.7667 312.153 100.242 311.753 100.625C311.353 101.008 310.894 101.2 310.378 101.2ZM308.053 115.375C307.536 115.375 307.111 115.242 306.778 114.975C306.444 114.708 306.278 114.317 306.278 113.8C306.278 113.5 306.311 113.142 306.378 112.725C306.444 112.308 306.519 111.892 306.603 111.475L307.778 105.85C307.928 105.167 307.686 104.683 307.053 104.4L306.653 104.2L306.678 103.925L311.378 102.575L311.628 102.8L309.678 111.85C309.611 112.15 309.561 112.408 309.528 112.625C309.494 112.825 309.478 113.025 309.478 113.225C309.478 113.592 309.644 113.775 309.978 113.775C310.228 113.775 310.478 113.7 310.728 113.55C310.978 113.383 311.294 113.117 311.678 112.75L311.903 112.975C311.486 113.592 310.953 114.15 310.303 114.65C309.669 115.133 308.919 115.375 308.053 115.375ZM315.532 115.375C314.982 115.375 314.54 115.233 314.207 114.95C313.89 114.667 313.732 114.258 313.732 113.725C313.732 113.425 313.765 113.067 313.832 112.65C313.898 112.217 313.998 111.667 314.132 111L315.557 104.1C315.69 103.467 315.798 102.892 315.882 102.375C315.982 101.858 316.09 101.275 316.207 100.625C316.323 99.9583 316.057 99.5083 315.407 99.275L314.982 99.125L315.032 98.875L319.932 97.475L320.082 97.65L317.007 112.15C316.957 112.4 316.915 112.625 316.882 112.825C316.848 113.008 316.832 113.167 316.832 113.3C316.832 113.667 316.99 113.85 317.307 113.85C317.723 113.85 318.332 113.475 319.132 112.725L319.382 112.925C318.965 113.542 318.44 114.108 317.807 114.625C317.173 115.125 316.415 115.375 315.532 115.375ZM324.192 115.375C323.142 115.375 322.292 115.167 321.642 114.75C320.992 114.333 320.667 113.742 320.667 112.975C320.667 112.575 320.809 112.225 321.092 111.925C321.376 111.625 321.742 111.475 322.192 111.475C323.026 111.475 323.542 111.983 323.742 113L323.892 113.7C323.976 114.05 324.076 114.333 324.192 114.55C324.326 114.767 324.576 114.875 324.942 114.875C325.359 114.875 325.726 114.7 326.042 114.35C326.359 114 326.517 113.517 326.517 112.9C326.517 112.433 326.367 111.983 326.067 111.55C325.784 111.117 325.301 110.642 324.617 110.125C323.934 109.592 323.384 109.042 322.967 108.475C322.551 107.892 322.342 107.2 322.342 106.4C322.342 105.7 322.517 105.067 322.867 104.5C323.234 103.917 323.759 103.458 324.442 103.125C325.126 102.775 325.934 102.6 326.867 102.6C327.951 102.6 328.801 102.817 329.417 103.25C330.051 103.683 330.367 104.242 330.367 104.925C330.367 105.292 330.259 105.6 330.042 105.85C329.826 106.083 329.501 106.2 329.067 106.2C328.267 106.2 327.726 105.717 327.442 104.75L327.192 104.05C327.109 103.717 327.009 103.483 326.892 103.35C326.776 103.217 326.592 103.15 326.342 103.15C326.076 103.15 325.801 103.3 325.517 103.6C325.234 103.883 325.092 104.342 325.092 104.975C325.092 105.575 325.267 106.125 325.617 106.625C325.984 107.108 326.526 107.617 327.242 108.15C327.976 108.7 328.509 109.233 328.842 109.75C329.192 110.267 329.367 110.892 329.367 111.625C329.367 112.308 329.167 112.933 328.767 113.5C328.367 114.067 327.784 114.525 327.017 114.875C326.251 115.208 325.309 115.375 324.192 115.375ZM334.067 115.325C333.5 115.325 333.033 115.15 332.667 114.8C332.317 114.433 332.142 114 332.142 113.5C332.142 112.867 332.367 112.333 332.817 111.9C333.283 111.467 333.817 111.25 334.417 111.25C334.983 111.25 335.442 111.433 335.792 111.8C336.158 112.167 336.342 112.608 336.342 113.125C336.342 113.742 336.108 114.267 335.642 114.7C335.192 115.117 334.667 115.325 334.067 115.325ZM52.0134 146L52.0634 145.75L52.6634 145.525C53.43 145.208 53.8967 144.642 54.0634 143.825L55.2884 137.25C55.4217 136.55 55.5634 135.775 55.7134 134.925C55.88 134.058 56.0384 133.2 56.1884 132.35C56.3384 131.483 56.4717 130.7 56.5884 130H55.5134C54.9134 130 54.3967 130.108 53.9634 130.325C53.53 130.542 53.1384 130.892 52.7884 131.375L50.7884 134.1H50.5384L51.4634 129.5H65.3134L64.5134 134.1H64.2634L63.3384 131.575C62.9717 130.525 62.2134 130 61.0634 130H60.0384L58.4884 138.225C58.3217 139.075 58.1467 139.992 57.9634 140.975C57.7967 141.942 57.63 142.883 57.4634 143.8C57.3134 144.667 57.6384 145.267 58.4384 145.6L58.7634 145.75L58.7134 146H52.0134ZM65.0042 146.15L64.8542 146L67.1292 135.1C67.2625 134.467 67.3792 133.9 67.4792 133.4C67.5792 132.883 67.6875 132.308 67.8042 131.675C67.9375 130.958 67.6625 130.483 66.9792 130.25L66.5792 130.125L66.6292 129.875L71.4042 128.475L71.5792 128.65L69.8792 136.625C70.7125 135.758 71.5959 135.042 72.5292 134.475C73.4792 133.892 74.3542 133.6 75.1542 133.6C75.6875 133.6 76.1209 133.767 76.4542 134.1C76.8042 134.417 76.9792 134.917 76.9792 135.6C76.9792 135.95 76.9459 136.317 76.8792 136.7C76.8125 137.067 76.7292 137.45 76.6292 137.85L75.3792 142.95C75.3125 143.267 75.2459 143.542 75.1792 143.775C75.1125 143.992 75.0792 144.167 75.0792 144.3C75.0792 144.65 75.2292 144.825 75.5292 144.825C75.9625 144.825 76.5709 144.458 77.3542 143.725L77.5792 143.95C77.1792 144.567 76.6375 145.125 75.9542 145.625C75.2709 146.125 74.4959 146.375 73.6292 146.375C73.0792 146.375 72.6542 146.25 72.3542 146C72.0542 145.733 71.9042 145.367 71.9042 144.9C71.9042 144.55 71.9459 144.192 72.0292 143.825C72.1125 143.442 72.2125 143.05 72.3292 142.65L73.4542 138.25C73.5709 137.8 73.6709 137.392 73.7542 137.025C73.8542 136.642 73.9042 136.317 73.9042 136.05C73.9042 135.467 73.6292 135.175 73.0792 135.175C72.2625 135.175 71.1875 135.842 69.8542 137.175L69.1042 140.65C68.8875 141.667 68.6959 142.592 68.5292 143.425C68.3792 144.242 68.2292 145.1 68.0792 146L65.0042 146.15ZM83.8022 146.375C82.5522 146.375 81.5356 145.967 80.7522 145.15C79.9689 144.333 79.5772 143.175 79.5772 141.675C79.5772 140.608 79.7606 139.592 80.1272 138.625C80.4939 137.658 81.0022 136.8 81.6522 136.05C82.3189 135.283 83.0856 134.683 83.9522 134.25C84.8189 133.817 85.7606 133.6 86.7772 133.6C87.8272 133.6 88.6272 133.842 89.1772 134.325C89.7439 134.792 90.0272 135.417 90.0272 136.2C90.0272 136.85 89.7189 137.492 89.1022 138.125C88.5022 138.758 87.6522 139.333 86.5522 139.85C85.4522 140.35 84.1606 140.733 82.6772 141C82.6939 142.15 82.9439 142.992 83.4272 143.525C83.9106 144.058 84.5772 144.325 85.4272 144.325C86.1439 144.325 86.8022 144.133 87.4022 143.75C88.0022 143.35 88.5106 142.883 88.9272 142.35L89.1772 142.525C88.8439 143.175 88.4106 143.792 87.8772 144.375C87.3606 144.958 86.7606 145.442 86.0772 145.825C85.3939 146.192 84.6356 146.375 83.8022 146.375ZM86.6022 134.275C86.2189 134.275 85.8022 134.442 85.3522 134.775C84.9189 135.108 84.5022 135.567 84.1022 136.15C83.7189 136.717 83.3939 137.375 83.1272 138.125C82.8772 138.858 82.7272 139.642 82.6772 140.475C84.5106 139.975 85.8106 139.317 86.5772 138.5C87.3606 137.683 87.7522 136.758 87.7522 135.725C87.7522 135.225 87.6439 134.858 87.4272 134.625C87.2106 134.392 86.9356 134.275 86.6022 134.275ZM90.7036 151.75C90.1036 151.75 89.6119 151.592 89.2286 151.275C88.8286 150.958 88.6286 150.542 88.6286 150.025C88.6286 149.592 88.7869 149.225 89.1036 148.925C89.4036 148.642 89.7786 148.5 90.2286 148.5C90.7619 148.5 91.2536 148.7 91.7036 149.1C92.0536 149.417 92.3953 149.608 92.7286 149.675C93.0786 149.742 93.4369 149.642 93.8036 149.375C94.0369 149.208 94.2536 149.025 94.4536 148.825C94.6703 148.642 94.8869 148.433 95.1036 148.2C95.1536 148.15 95.2036 148.1 95.2536 148.05C95.0036 146.267 94.7536 144.55 94.5036 142.9C94.2536 141.25 93.9953 139.542 93.7286 137.775C93.6453 137.142 93.5619 136.675 93.4786 136.375C93.3953 136.075 93.3036 135.883 93.2036 135.8C93.1203 135.7 93.0119 135.65 92.8786 135.65C92.7119 135.65 92.5203 135.725 92.3036 135.875C92.1036 136.025 91.8703 136.283 91.6036 136.65L91.2786 136.325C92.4453 134.508 93.6286 133.6 94.8286 133.6C95.4619 133.6 95.9119 133.808 96.1786 134.225C96.4619 134.642 96.6453 135.308 96.7286 136.225C96.8953 137.775 97.0536 139.258 97.2036 140.675C97.3536 142.075 97.4869 143.558 97.6036 145.125C98.1869 143.742 98.6786 142.367 99.0786 141C99.4786 139.617 99.8703 138.125 100.254 136.525C100.537 135.358 100.837 134.567 101.154 134.15C101.487 133.733 101.929 133.525 102.479 133.525C102.845 133.525 103.17 133.642 103.454 133.875C103.737 134.108 103.879 134.417 103.879 134.8C103.879 135.217 103.795 135.608 103.629 135.975C103.479 136.325 103.262 136.767 102.979 137.3C102.712 137.817 102.42 138.358 102.104 138.925C101.787 139.492 101.412 140.125 100.979 140.825C100.512 141.558 100.012 142.35 99.4786 143.2C98.9619 144.033 98.3536 144.942 97.6536 145.925C97.2703 146.442 96.8619 146.983 96.4286 147.55C96.0119 148.117 95.4869 148.725 94.8536 149.375C94.1869 150.092 93.5036 150.667 92.8036 151.1C92.1203 151.533 91.4203 151.75 90.7036 151.75ZM113.908 146L110.858 146.175L110.658 146L112.583 136.8C112.733 136.133 112.5 135.675 111.883 135.425L111.433 135.2L111.483 134.95L116.133 133.575L116.358 133.8L115.833 136.5C116.683 135.617 117.55 134.917 118.433 134.4C119.317 133.867 120.142 133.6 120.908 133.6C121.442 133.6 121.883 133.767 122.233 134.1C122.583 134.417 122.758 134.917 122.758 135.6C122.758 135.75 122.75 135.9 122.733 136.05C122.717 136.2 122.7 136.358 122.683 136.525C123.517 135.625 124.358 134.917 125.208 134.4C126.075 133.867 126.9 133.6 127.683 133.6C128.217 133.6 128.65 133.767 128.983 134.1C129.333 134.417 129.508 134.917 129.508 135.6C129.508 135.95 129.475 136.317 129.408 136.7C129.342 137.067 129.258 137.45 129.158 137.85L127.858 143.2C127.792 143.467 127.733 143.692 127.683 143.875C127.633 144.058 127.608 144.217 127.608 144.35C127.608 144.7 127.75 144.875 128.033 144.875C128.283 144.875 128.558 144.775 128.858 144.575C129.175 144.358 129.517 144.067 129.883 143.7L130.133 143.95C129.9 144.317 129.592 144.692 129.208 145.075C128.825 145.442 128.375 145.75 127.858 146C127.358 146.25 126.792 146.375 126.158 146.375C125.608 146.375 125.183 146.25 124.883 146C124.583 145.733 124.433 145.367 124.433 144.9C124.433 144.55 124.475 144.192 124.558 143.825C124.642 143.442 124.742 143.05 124.858 142.65L125.883 138.425C125.983 137.992 126.067 137.592 126.133 137.225C126.217 136.858 126.258 136.558 126.258 136.325C126.258 135.742 125.992 135.45 125.458 135.45C124.692 135.45 123.725 136.025 122.558 137.175C122.542 137.208 122.525 137.25 122.508 137.3C122.508 137.333 122.508 137.375 122.508 137.425L121.808 140.675C121.625 141.558 121.45 142.442 121.283 143.325C121.117 144.208 120.942 145.1 120.758 146L117.733 146.175L117.533 146L119.208 138.075C119.275 137.742 119.333 137.433 119.383 137.15C119.433 136.85 119.458 136.592 119.458 136.375C119.458 135.825 119.208 135.55 118.708 135.55C117.858 135.55 116.858 136.092 115.708 137.175L114.933 140.675C114.75 141.558 114.575 142.442 114.408 143.325C114.242 144.208 114.075 145.1 113.908 146ZM134.714 146.375C134.248 146.375 133.806 146.267 133.389 146.05C132.973 145.833 132.631 145.475 132.364 144.975C132.114 144.475 131.989 143.817 131.989 143C131.989 142.117 132.164 141.233 132.514 140.35C132.864 139.45 133.331 138.6 133.914 137.8C134.498 136.983 135.148 136.267 135.864 135.65C136.581 135.017 137.323 134.517 138.089 134.15C138.856 133.783 139.581 133.6 140.264 133.6C140.598 133.6 140.906 133.667 141.189 133.8C141.489 133.917 141.773 134.083 142.039 134.3L144.064 133.525L144.264 133.65L142.089 143.225C141.973 143.692 141.914 144.075 141.914 144.375C141.914 144.725 142.073 144.9 142.389 144.9C142.623 144.9 142.889 144.792 143.189 144.575C143.506 144.358 143.864 144.067 144.264 143.7L144.464 143.9C144.214 144.3 143.898 144.692 143.514 145.075C143.148 145.442 142.731 145.75 142.264 146C141.814 146.25 141.331 146.375 140.814 146.375C140.248 146.375 139.789 146.208 139.439 145.875C139.089 145.525 138.914 144.992 138.914 144.275C138.914 144.042 138.923 143.817 138.939 143.6C138.273 144.35 137.564 145 136.814 145.55C136.081 146.1 135.381 146.375 134.714 146.375ZM134.939 141.875C134.939 142.758 135.081 143.4 135.364 143.8C135.664 144.183 136.056 144.375 136.539 144.375C136.939 144.375 137.339 144.25 137.739 144C138.139 143.75 138.573 143.392 139.039 142.925C139.073 142.725 139.114 142.517 139.164 142.3L140.739 135.1C140.523 134.833 140.264 134.65 139.964 134.55C139.664 134.45 139.398 134.4 139.164 134.4C138.448 134.4 137.698 134.825 136.914 135.675C136.298 136.358 135.814 137.258 135.464 138.375C135.114 139.492 134.939 140.658 134.939 141.875ZM146.231 146.2L145.906 145.925L148.156 135.1C148.273 134.517 148.389 133.942 148.506 133.375C148.623 132.808 148.731 132.233 148.831 131.65C148.931 130.95 148.664 130.492 148.031 130.275L147.606 130.1L147.656 129.875L152.456 128.475L152.631 128.65L150.131 140.65C149.914 141.667 149.723 142.592 149.556 143.425C149.406 144.242 149.256 145.1 149.106 146L146.231 146.2ZM153.006 146C152.773 145.767 152.556 145.408 152.356 144.925C152.156 144.442 151.964 143.967 151.781 143.5L150.381 139.65L156.606 133.75C157.056 133.767 157.439 133.908 157.756 134.175C158.073 134.442 158.231 134.817 158.231 135.3C158.231 135.733 158.056 136.1 157.706 136.4C157.356 136.683 156.906 136.958 156.356 137.225L151.381 139.575L155.856 144.725C156.039 144.925 156.206 145.092 156.356 145.225C156.506 145.358 156.689 145.492 156.906 145.625L157.106 145.75L157.056 146H153.006ZM163.096 146.375C161.846 146.375 160.83 145.967 160.046 145.15C159.263 144.333 158.871 143.175 158.871 141.675C158.871 140.608 159.055 139.592 159.421 138.625C159.788 137.658 160.296 136.8 160.946 136.05C161.613 135.283 162.38 134.683 163.246 134.25C164.113 133.817 165.055 133.6 166.071 133.6C167.121 133.6 167.921 133.842 168.471 134.325C169.038 134.792 169.321 135.417 169.321 136.2C169.321 136.85 169.013 137.492 168.396 138.125C167.796 138.758 166.946 139.333 165.846 139.85C164.746 140.35 163.455 140.733 161.971 141C161.988 142.15 162.238 142.992 162.721 143.525C163.205 144.058 163.871 144.325 164.721 144.325C165.438 144.325 166.096 144.133 166.696 143.75C167.296 143.35 167.805 142.883 168.221 142.35L168.471 142.525C168.138 143.175 167.705 143.792 167.171 144.375C166.655 144.958 166.055 145.442 165.371 145.825C164.688 146.192 163.93 146.375 163.096 146.375ZM165.896 134.275C165.513 134.275 165.096 134.442 164.646 134.775C164.213 135.108 163.796 135.567 163.396 136.15C163.013 136.717 162.688 137.375 162.421 138.125C162.171 138.858 162.021 139.642 161.971 140.475C163.805 139.975 165.105 139.317 165.871 138.5C166.655 137.683 167.046 136.758 167.046 135.725C167.046 135.225 166.938 134.858 166.721 134.625C166.505 134.392 166.23 134.275 165.896 134.275ZM179.115 146.375C178.598 146.375 178.165 146.242 177.815 145.975C177.482 145.692 177.315 145.283 177.315 144.75C177.315 144.417 177.348 144.058 177.415 143.675C177.482 143.275 177.557 142.85 177.64 142.4L179.365 134.5H177.29L177.365 134.2L178.265 134.1C178.732 134.05 179.14 133.933 179.49 133.75C179.84 133.567 180.173 133.308 180.49 132.975L182.89 130.55H183.265L182.565 133.975H185.29L185.165 134.5H182.44L180.715 142.825C180.648 143.142 180.598 143.417 180.565 143.65C180.532 143.867 180.515 144.05 180.515 144.2C180.515 144.367 180.565 144.5 180.665 144.6C180.765 144.7 180.873 144.75 180.99 144.75C181.223 144.75 181.473 144.658 181.74 144.475C182.007 144.275 182.34 143.983 182.74 143.6L183.04 143.85C182.623 144.467 182.082 145.042 181.415 145.575C180.748 146.108 179.982 146.375 179.115 146.375ZM185.239 146.15L185.089 146L187.364 135.1C187.497 134.467 187.614 133.9 187.714 133.4C187.814 132.883 187.922 132.308 188.039 131.675C188.172 130.958 187.897 130.483 187.214 130.25L186.814 130.125L186.864 129.875L191.639 128.475L191.814 128.65L190.114 136.625C190.947 135.758 191.83 135.042 192.764 134.475C193.714 133.892 194.589 133.6 195.389 133.6C195.922 133.6 196.355 133.767 196.689 134.1C197.039 134.417 197.214 134.917 197.214 135.6C197.214 135.95 197.18 136.317 197.114 136.7C197.047 137.067 196.964 137.45 196.864 137.85L195.614 142.95C195.547 143.267 195.48 143.542 195.414 143.775C195.347 143.992 195.314 144.167 195.314 144.3C195.314 144.65 195.464 144.825 195.764 144.825C196.197 144.825 196.805 144.458 197.589 143.725L197.814 143.95C197.414 144.567 196.872 145.125 196.189 145.625C195.505 146.125 194.73 146.375 193.864 146.375C193.314 146.375 192.889 146.25 192.589 146C192.289 145.733 192.139 145.367 192.139 144.9C192.139 144.55 192.18 144.192 192.264 143.825C192.347 143.442 192.447 143.05 192.564 142.65L193.689 138.25C193.805 137.8 193.905 137.392 193.989 137.025C194.089 136.642 194.139 136.317 194.139 136.05C194.139 135.467 193.864 135.175 193.314 135.175C192.497 135.175 191.422 135.842 190.089 137.175L189.339 140.65C189.122 141.667 188.93 142.592 188.764 143.425C188.614 144.242 188.464 145.1 188.314 146L185.239 146.15ZM204.037 146.375C202.787 146.375 201.77 145.967 200.987 145.15C200.203 144.333 199.812 143.175 199.812 141.675C199.812 140.608 199.995 139.592 200.362 138.625C200.728 137.658 201.237 136.8 201.887 136.05C202.553 135.283 203.32 134.683 204.187 134.25C205.053 133.817 205.995 133.6 207.012 133.6C208.062 133.6 208.862 133.842 209.412 134.325C209.978 134.792 210.262 135.417 210.262 136.2C210.262 136.85 209.953 137.492 209.337 138.125C208.737 138.758 207.887 139.333 206.787 139.85C205.687 140.35 204.395 140.733 202.912 141C202.928 142.15 203.178 142.992 203.662 143.525C204.145 144.058 204.812 144.325 205.662 144.325C206.378 144.325 207.037 144.133 207.637 143.75C208.237 143.35 208.745 142.883 209.162 142.35L209.412 142.525C209.078 143.175 208.645 143.792 208.112 144.375C207.595 144.958 206.995 145.442 206.312 145.825C205.628 146.192 204.87 146.375 204.037 146.375ZM206.837 134.275C206.453 134.275 206.037 134.442 205.587 134.775C205.153 135.108 204.737 135.567 204.337 136.15C203.953 136.717 203.628 137.375 203.362 138.125C203.112 138.858 202.962 139.642 202.912 140.475C204.745 139.975 206.045 139.317 206.812 138.5C207.595 137.683 207.987 136.758 207.987 135.725C207.987 135.225 207.878 134.858 207.662 134.625C207.445 134.392 207.17 134.275 206.837 134.275ZM220.156 146.375C219.489 146.375 218.897 146.117 218.381 145.6C217.881 145.083 217.631 144.183 217.631 142.9C217.631 142.033 217.797 141.158 218.131 140.275C218.464 139.392 218.906 138.558 219.456 137.775C220.022 136.975 220.656 136.258 221.356 135.625C222.072 134.992 222.814 134.5 223.581 134.15C224.347 133.783 225.097 133.6 225.831 133.6C226.164 133.6 226.481 133.65 226.781 133.75L227.156 131.875C227.306 131.125 227.031 130.617 226.331 130.35L225.781 130.125L225.831 129.875L230.681 128.475L230.856 128.65L227.781 143.2C227.731 143.467 227.689 143.692 227.656 143.875C227.639 144.042 227.631 144.208 227.631 144.375C227.631 144.725 227.772 144.9 228.056 144.9C228.256 144.9 228.522 144.8 228.856 144.6C229.206 144.383 229.556 144.067 229.906 143.65L230.181 143.9C229.781 144.567 229.239 145.15 228.556 145.65C227.872 146.133 227.147 146.375 226.381 146.375C225.831 146.375 225.397 146.2 225.081 145.85C224.764 145.483 224.606 145.017 224.606 144.45C224.606 144.167 224.631 143.833 224.681 143.45C223.997 144.317 223.247 145.025 222.431 145.575C221.631 146.108 220.872 146.375 220.156 146.375ZM220.681 142.1C220.681 142.933 220.814 143.533 221.081 143.9C221.347 144.267 221.697 144.45 222.131 144.45C222.897 144.45 223.781 143.867 224.781 142.7C224.797 142.617 224.814 142.525 224.831 142.425L226.356 135.05C225.939 134.667 225.447 134.475 224.881 134.475C224.464 134.475 224.072 134.575 223.706 134.775C223.356 134.958 223.022 135.225 222.706 135.575C222.322 136.008 221.972 136.592 221.656 137.325C221.356 138.042 221.114 138.825 220.931 139.675C220.764 140.508 220.681 141.317 220.681 142.1ZM236.127 146.375C234.877 146.375 233.861 145.967 233.077 145.15C232.294 144.333 231.902 143.175 231.902 141.675C231.902 140.608 232.086 139.592 232.452 138.625C232.819 137.658 233.327 136.8 233.977 136.05C234.644 135.283 235.411 134.683 236.277 134.25C237.144 133.817 238.086 133.6 239.102 133.6C240.152 133.6 240.952 133.842 241.502 134.325C242.069 134.792 242.352 135.417 242.352 136.2C242.352 136.85 242.044 137.492 241.427 138.125C240.827 138.758 239.977 139.333 238.877 139.85C237.777 140.35 236.486 140.733 235.002 141C235.019 142.15 235.269 142.992 235.752 143.525C236.236 144.058 236.902 144.325 237.752 144.325C238.469 144.325 239.127 144.133 239.727 143.75C240.327 143.35 240.836 142.883 241.252 142.35L241.502 142.525C241.169 143.175 240.736 143.792 240.202 144.375C239.686 144.958 239.086 145.442 238.402 145.825C237.719 146.192 236.961 146.375 236.127 146.375ZM238.927 134.275C238.544 134.275 238.127 134.442 237.677 134.775C237.244 135.108 236.827 135.567 236.427 136.15C236.044 136.717 235.719 137.375 235.452 138.125C235.202 138.858 235.052 139.642 235.002 140.475C236.836 139.975 238.136 139.317 238.902 138.5C239.686 137.683 240.077 136.758 240.077 135.725C240.077 135.225 239.969 134.858 239.752 134.625C239.536 134.392 239.261 134.275 238.927 134.275ZM246.535 146.375C245.485 146.375 244.635 146.167 243.985 145.75C243.335 145.333 243.01 144.742 243.01 143.975C243.01 143.575 243.152 143.225 243.435 142.925C243.719 142.625 244.085 142.475 244.535 142.475C245.369 142.475 245.885 142.983 246.085 144L246.235 144.7C246.319 145.05 246.419 145.333 246.535 145.55C246.669 145.767 246.919 145.875 247.285 145.875C247.702 145.875 248.069 145.7 248.385 145.35C248.702 145 248.86 144.517 248.86 143.9C248.86 143.433 248.71 142.983 248.41 142.55C248.127 142.117 247.644 141.642 246.96 141.125C246.277 140.592 245.727 140.042 245.31 139.475C244.894 138.892 244.685 138.2 244.685 137.4C244.685 136.7 244.86 136.067 245.21 135.5C245.577 134.917 246.102 134.458 246.785 134.125C247.469 133.775 248.277 133.6 249.21 133.6C250.294 133.6 251.144 133.817 251.76 134.25C252.394 134.683 252.71 135.242 252.71 135.925C252.71 136.292 252.602 136.6 252.385 136.85C252.169 137.083 251.844 137.2 251.41 137.2C250.61 137.2 250.069 136.717 249.785 135.75L249.535 135.05C249.452 134.717 249.352 134.483 249.235 134.35C249.119 134.217 248.935 134.15 248.685 134.15C248.419 134.15 248.144 134.3 247.86 134.6C247.577 134.883 247.435 135.342 247.435 135.975C247.435 136.575 247.61 137.125 247.96 137.625C248.327 138.108 248.869 138.617 249.585 139.15C250.319 139.7 250.852 140.233 251.185 140.75C251.535 141.267 251.71 141.892 251.71 142.625C251.71 143.308 251.51 143.933 251.11 144.5C250.71 145.067 250.127 145.525 249.36 145.875C248.594 146.208 247.652 146.375 246.535 146.375ZM258.366 132.2C257.899 132.2 257.491 132.05 257.141 131.75C256.808 131.433 256.641 131.017 256.641 130.5C256.641 129.917 256.841 129.442 257.241 129.075C257.658 128.692 258.124 128.5 258.641 128.5C259.141 128.5 259.549 128.658 259.866 128.975C260.183 129.292 260.341 129.7 260.341 130.2C260.341 130.767 260.141 131.242 259.741 131.625C259.341 132.008 258.883 132.2 258.366 132.2ZM256.041 146.375C255.524 146.375 255.099 146.242 254.766 145.975C254.433 145.708 254.266 145.317 254.266 144.8C254.266 144.5 254.299 144.142 254.366 143.725C254.433 143.308 254.508 142.892 254.591 142.475L255.766 136.85C255.916 136.167 255.674 135.683 255.041 135.4L254.641 135.2L254.666 134.925L259.366 133.575L259.616 133.8L257.666 142.85C257.599 143.15 257.549 143.408 257.516 143.625C257.483 143.825 257.466 144.025 257.466 144.225C257.466 144.592 257.633 144.775 257.966 144.775C258.216 144.775 258.466 144.7 258.716 144.55C258.966 144.383 259.283 144.117 259.666 143.75L259.891 143.975C259.474 144.592 258.941 145.15 258.291 145.65C257.658 146.133 256.908 146.375 256.041 146.375ZM264.395 151.9C262.995 151.9 261.886 151.683 261.07 151.25C260.27 150.817 259.87 150.183 259.87 149.35C259.87 148.833 260.053 148.358 260.42 147.925C260.786 147.508 261.236 147.142 261.77 146.825C262.32 146.508 262.878 146.258 263.445 146.075C262.878 145.925 262.436 145.725 262.12 145.475C261.803 145.208 261.645 144.875 261.645 144.475C261.645 144.075 261.878 143.608 262.345 143.075C262.828 142.525 263.395 142 264.045 141.5C263.561 141.167 263.195 140.75 262.945 140.25C262.695 139.75 262.57 139.225 262.57 138.675C262.57 137.758 262.803 136.917 263.27 136.15C263.736 135.383 264.361 134.767 265.145 134.3C265.945 133.833 266.82 133.6 267.77 133.6C268.403 133.6 268.986 133.692 269.52 133.875C270.07 134.042 270.528 134.3 270.895 134.65C271.428 134.567 271.936 134.442 272.42 134.275C272.92 134.092 273.395 133.867 273.845 133.6L274.02 133.775L273.77 135.075H271.27C271.67 135.608 271.87 136.25 271.87 137C271.87 138.017 271.645 138.917 271.195 139.7C270.761 140.483 270.153 141.1 269.37 141.55C268.586 141.983 267.67 142.2 266.62 142.2C265.82 142.2 265.111 142.05 264.495 141.75L264.12 142.375C263.986 142.575 263.945 142.775 263.995 142.975C264.045 143.175 264.22 143.3 264.52 143.35L268.62 144.175C270.003 144.458 270.97 144.825 271.52 145.275C272.086 145.725 272.37 146.342 272.37 147.125C272.37 148.058 272.02 148.883 271.32 149.6C270.636 150.317 269.695 150.875 268.495 151.275C267.295 151.692 265.928 151.9 264.395 151.9ZM267.07 141.7C267.62 141.7 268.086 141.383 268.47 140.75C268.87 140.117 269.07 139.017 269.07 137.45C269.07 136.383 268.928 135.558 268.645 134.975C268.361 134.392 268.003 134.1 267.57 134.1C266.903 134.117 266.395 134.508 266.045 135.275C265.695 136.025 265.52 137.033 265.52 138.3C265.52 139.217 265.636 140.017 265.87 140.7C266.12 141.383 266.52 141.717 267.07 141.7ZM262.395 148.475C262.395 149.308 262.695 149.958 263.295 150.425C263.895 150.908 264.703 151.15 265.72 151.15C267.003 151.15 268.011 150.933 268.745 150.5C269.478 150.067 269.845 149.442 269.845 148.625C269.845 148.142 269.628 147.758 269.195 147.475C268.778 147.192 268.036 146.95 266.97 146.75L264.045 146.2C263.961 146.183 263.886 146.167 263.82 146.15C263.386 146.417 263.036 146.742 262.77 147.125C262.52 147.525 262.395 147.975 262.395 148.475ZM275.256 146.175L275.031 146L276.956 136.8C277.106 136.15 276.873 135.683 276.256 135.4L275.831 135.2L275.856 134.95L280.506 133.575L280.731 133.775L280.156 136.8C281.023 135.817 281.906 135.042 282.806 134.475C283.706 133.892 284.556 133.6 285.356 133.6C285.89 133.6 286.331 133.767 286.681 134.1C287.031 134.417 287.206 134.917 287.206 135.6C287.206 135.95 287.173 136.317 287.106 136.7C287.04 137.067 286.956 137.45 286.856 137.85L285.531 143.175C285.465 143.442 285.415 143.667 285.381 143.85C285.348 144.017 285.331 144.167 285.331 144.3C285.331 144.65 285.473 144.825 285.756 144.825C286.223 144.825 286.815 144.45 287.531 143.7L287.781 143.95C287.365 144.567 286.815 145.125 286.131 145.625C285.448 146.125 284.69 146.375 283.856 146.375C283.306 146.375 282.881 146.25 282.581 146C282.281 145.733 282.131 145.367 282.131 144.9C282.131 144.55 282.173 144.192 282.256 143.825C282.34 143.442 282.431 143.05 282.531 142.65L283.506 138.75C283.64 138.217 283.748 137.742 283.831 137.325C283.915 136.908 283.956 136.525 283.956 136.175C283.956 135.875 283.89 135.667 283.756 135.55C283.623 135.417 283.44 135.35 283.206 135.35C282.806 135.35 282.331 135.525 281.781 135.875C281.248 136.225 280.656 136.775 280.006 137.525L279.306 140.675C279.123 141.558 278.948 142.442 278.781 143.325C278.615 144.208 278.448 145.1 278.281 146L275.256 146.175ZM291.796 146.325C291.23 146.325 290.763 146.15 290.396 145.8C290.046 145.433 289.871 145 289.871 144.5C289.871 143.867 290.096 143.333 290.546 142.9C291.013 142.467 291.546 142.25 292.146 142.25C292.713 142.25 293.171 142.433 293.521 142.8C293.888 143.167 294.071 143.608 294.071 144.125C294.071 144.742 293.838 145.267 293.371 145.7C292.921 146.117 292.396 146.325 291.796 146.325Z" fill="#CDA274"/>
<path d="M196.252 29.6C200.652 29.6 204.252 31.0667 207.052 34C209.718 36.9333 211.052 40.8667 211.052 45.8C211.052 54.4667 208.185 62 202.452 68.4C196.585 74.8 189.585 80.0667 181.452 84.2L179.452 80.8C182.785 78.6667 185.918 75.9333 188.852 72.6C191.652 69.2667 193.852 65.6667 195.452 61.8L189.852 57.6C187.585 56.1333 185.718 54.1333 184.252 51.6C182.785 49.2 182.052 46.8667 182.052 44.6C182.052 40.3333 183.385 36.7333 186.052 33.8C188.585 31 191.985 29.6 196.252 29.6ZM155.052 29.6C159.452 29.6 163.052 31.0667 165.852 34C168.518 36.9333 169.852 40.8667 169.852 45.8C169.852 54.4667 166.985 62 161.252 68.4C155.385 74.8 148.385 80.0667 140.252 84.2L138.252 80.8C141.585 78.6667 144.718 75.9333 147.652 72.6C150.452 69.2667 152.652 65.6667 154.252 61.8L148.652 57.6C146.385 56.1333 144.518 54.1333 143.052 51.6C141.585 49.2 140.852 46.8667 140.852 44.6C140.852 40.3333 142.185 36.7333 144.852 33.8C147.385 31 150.785 29.6 155.052 29.6Z" fill="#CDA274"/>
</svg>
