<svg width="132" height="28" viewBox="0 0 132 28" fill="none" xmlns="http://www.w3.org/2000/svg">
<path d="M0.88 27V26.6L1.68 26.28C2.21333 26.0933 2.56 25.84 2.72 25.52C2.90667 25.2 3 24.7733 3 24.24V3.36C3 2.82667 2.92 2.4 2.76 2.08C2.6 1.76 2.24 1.50667 1.68 1.32L0.88 0.999999V0.599999H11.16V0.999999L10.36 1.32C9.82667 1.50667 9.46667 1.76 9.28 2.08C9.12 2.4 9.04 2.82667 9.04 3.36V24.24C9.04 24.7733 9.12 25.2 9.28 25.52C9.46667 25.8133 9.82667 26.0667 10.36 26.28L11.16 26.6V27H0.88ZM12.8313 27V26.6L13.3913 26.44C14.3246 26.1733 14.7913 25.52 14.7913 24.48V11.96C14.7913 11.3733 14.6979 10.9467 14.5113 10.68C14.3246 10.3867 13.9646 10.1867 13.4313 10.08L12.8313 9.92V9.52L19.6713 7.2L20.0713 7.6L20.3913 10C21.3246 9.17333 22.3779 8.49333 23.5513 7.96C24.7246 7.42667 25.8846 7.16 27.0313 7.16C28.7913 7.16 30.1379 7.64 31.0713 8.6C32.0313 9.56 32.5113 11.0267 32.5113 13V24.52C32.5113 25.56 33.0179 26.2133 34.0313 26.48L34.3913 26.6V27H24.9513V26.6L25.4713 26.44C26.4046 26.1467 26.8713 25.4933 26.8713 24.48V11.72C26.8713 10.0133 26.0179 9.16 24.3113 9.16C23.1379 9.16 21.8579 9.74667 20.4713 10.92V24.52C20.4713 25.56 20.9379 26.2133 21.8713 26.48L22.2313 26.6V27H12.8313ZM43.3609 27.6C41.6543 27.6 40.3209 27.1733 39.3609 26.32C38.4276 25.4667 37.9609 24.1067 37.9609 22.24V8.56H35.2009V8.16L36.1609 8C36.9876 7.81333 37.6943 7.54667 38.2809 7.2C38.8943 6.85333 39.4943 6.38667 40.0809 5.8L43.3609 2.16H43.7609L43.6409 7.76H48.1209V8.56H43.6009V22.96C43.6009 23.8933 43.8009 24.6 44.2009 25.08C44.6276 25.56 45.1609 25.8 45.8009 25.8C46.3609 25.8 46.8543 25.6667 47.2809 25.4C47.7076 25.1067 48.1343 24.72 48.5609 24.24L48.9609 24.64C48.4276 25.5467 47.6943 26.2667 46.7609 26.8C45.8276 27.3333 44.6943 27.6 43.3609 27.6ZM60.1369 7.16C61.8702 7.16 63.3502 7.52 64.5769 8.24C65.8035 8.93333 66.7369 9.89333 67.3769 11.12C68.0435 12.32 68.3769 13.6933 68.3769 15.24C68.3769 15.5333 68.3635 15.84 68.3369 16.16C68.3102 16.4533 68.2569 16.72 68.1769 16.96H56.2569C56.2835 19.84 56.7902 21.92 57.7769 23.2C58.7902 24.4533 60.2835 25.08 62.2569 25.08C63.5902 25.08 64.6702 24.8667 65.4969 24.44C66.3235 24.0133 67.0969 23.3867 67.8169 22.56L68.2169 22.92C67.3902 24.3867 66.2835 25.5333 64.8969 26.36C63.5369 27.1867 61.8969 27.6 59.9769 27.6C58.0835 27.6 56.4035 27.2 54.9369 26.4C53.4702 25.5733 52.3235 24.4 51.4969 22.88C50.6702 21.36 50.2569 19.5467 50.2569 17.44C50.2569 15.2533 50.7369 13.4 51.6969 11.88C52.6569 10.3333 53.8835 9.16 55.3769 8.36C56.8969 7.56 58.4835 7.16 60.1369 7.16ZM60.0169 7.96C59.2435 7.96 58.5769 8.2 58.0169 8.68C57.4835 9.13333 57.0569 9.96 56.7369 11.16C56.4435 12.3333 56.2835 14 56.2569 16.16H63.0969C63.3635 13.2533 63.2569 11.16 62.7769 9.88C62.2969 8.6 61.3769 7.96 60.0169 7.96ZM70.3703 27V26.6L70.9703 26.44C71.5036 26.28 71.8636 26.04 72.0503 25.72C72.2636 25.4 72.3703 24.9867 72.3703 24.48V11.96C72.3703 11.3733 72.2636 10.9467 72.0503 10.68C71.8636 10.3867 71.5036 10.1867 70.9703 10.08L70.3703 9.92V9.52L77.2503 7.2L77.6503 7.6L78.0103 11.04V11.36C78.3836 10.6133 78.8636 9.93333 79.4503 9.32C80.0636 8.68 80.7303 8.16 81.4503 7.76C82.197 7.36 82.9303 7.16 83.6503 7.16C84.6636 7.16 85.437 7.44 85.9703 8C86.5036 8.56 86.7703 9.26667 86.7703 10.12C86.7703 11.0267 86.5036 11.7333 85.9703 12.24C85.4636 12.72 84.8503 12.96 84.1303 12.96C83.0103 12.96 82.0236 12.4 81.1703 11.28L81.0903 11.2C80.8236 10.8267 80.517 10.6267 80.1703 10.6C79.8236 10.5467 79.5036 10.7067 79.2103 11.08C78.9436 11.32 78.717 11.6133 78.5303 11.96C78.3703 12.28 78.2103 12.6533 78.0503 13.08V24.24C78.0503 25.3067 78.517 25.9733 79.4503 26.24L80.7303 26.6V27H70.3703ZM88.0266 27V26.6L88.5866 26.44C89.5199 26.1733 89.9866 25.52 89.9866 24.48V11.96C89.9866 11.3733 89.8932 10.9467 89.7066 10.68C89.5199 10.3867 89.1599 10.1867 88.6266 10.08L88.0266 9.92V9.52L94.8666 7.2L95.2666 7.6L95.5866 10C96.5199 9.17333 97.5732 8.49333 98.7466 7.96C99.9199 7.42667 101.08 7.16 102.227 7.16C103.987 7.16 105.333 7.64 106.267 8.6C107.227 9.56 107.707 11.0267 107.707 13V24.52C107.707 25.56 108.213 26.2133 109.227 26.48L109.587 26.6V27H100.147V26.6L100.667 26.44C101.6 26.1467 102.067 25.4933 102.067 24.48V11.72C102.067 10.0133 101.213 9.16 99.5066 9.16C98.3332 9.16 97.0532 9.74667 95.6666 10.92V24.52C95.6666 25.56 96.1332 26.2133 97.0666 26.48L97.4266 26.6V27H88.0266ZM121.272 27.6C119.245 27.6 117.485 27.1867 115.992 26.36C114.498 25.5067 113.338 24.3067 112.512 22.76C111.712 21.2133 111.312 19.4 111.312 17.32C111.312 15.24 111.738 13.44 112.592 11.92C113.472 10.4 114.658 9.22667 116.152 8.4C117.672 7.57333 119.378 7.16 121.272 7.16C123.165 7.16 124.858 7.57333 126.352 8.4C127.845 9.2 129.018 10.36 129.872 11.88C130.752 13.4 131.192 15.2133 131.192 17.32C131.192 19.4267 130.778 21.2533 129.952 22.8C129.152 24.32 128.005 25.5067 126.512 26.36C125.045 27.1867 123.298 27.6 121.272 27.6ZM121.272 26.8C122.205 26.8 122.952 26.5333 123.512 26C124.072 25.4667 124.472 24.52 124.712 23.16C124.978 21.8 125.112 19.88 125.112 17.4C125.112 14.8933 124.978 12.96 124.712 11.6C124.472 10.24 124.072 9.29333 123.512 8.76C122.952 8.22667 122.205 7.96 121.272 7.96C120.338 7.96 119.578 8.22667 118.992 8.76C118.432 9.29333 118.018 10.24 117.752 11.6C117.512 12.96 117.392 14.8933 117.392 17.4C117.392 19.88 117.512 21.8 117.752 23.16C118.018 24.52 118.432 25.4667 118.992 26C119.578 26.5333 120.338 26.8 121.272 26.8Z" fill="#292F36"/>
</svg>
